<svg width="532" height="12" viewBox="0 0 532 12" fill="none" xmlns="http://www.w3.org/2000/svg">
<path d="M0.159357 11V0.818182H6.90083V2.59304H2.31206V5.01918H6.45339V6.79403H2.31206V11H0.159357ZM17.7053 5.90909C17.7053 7.01941 17.4949 7.96402 17.074 8.7429C16.6563 9.52178 16.0863 10.1167 15.3637 10.5277C14.6445 10.9354 13.8358 11.1392 12.9376 11.1392C12.0328 11.1392 11.2207 10.9337 10.5015 10.5227C9.78229 10.1117 9.21387 9.51681 8.79625 8.73793C8.37864 7.95904 8.16983 7.0161 8.16983 5.90909C8.16983 4.79877 8.37864 3.85417 8.79625 3.07528C9.21387 2.2964 9.78229 1.70312 10.5015 1.29545C11.2207 0.884469 12.0328 0.678977 12.9376 0.678977C13.8358 0.678977 14.6445 0.884469 15.3637 1.29545C16.0863 1.70312 16.6563 2.2964 17.074 3.07528C17.4949 3.85417 17.7053 4.79877 17.7053 5.90909ZM15.5228 5.90909C15.5228 5.18987 15.4151 4.58333 15.1997 4.08949C14.9875 3.59564 14.6876 3.22112 14.2998 2.96591C13.912 2.7107 13.4579 2.5831 12.9376 2.5831C12.4172 2.5831 11.9632 2.7107 11.5754 2.96591C11.1876 3.22112 10.886 3.59564 10.6705 4.08949C10.4584 4.58333 10.3524 5.18987 10.3524 5.90909C10.3524 6.62831 10.4584 7.23485 10.6705 7.72869C10.886 8.22254 11.1876 8.59706 11.5754 8.85227C11.9632 9.10748 12.4172 9.23509 12.9376 9.23509C13.4579 9.23509 13.912 9.10748 14.2998 8.85227C14.6876 8.59706 14.9875 8.22254 15.1997 7.72869C15.4151 7.23485 15.5228 6.62831 15.5228 5.90909ZM19.3 11V0.818182H23.317C24.086 0.818182 24.7422 0.955729 25.2858 1.23082C25.8327 1.5026 26.2486 1.88873 26.5336 2.3892C26.822 2.88636 26.9662 3.47135 26.9662 4.14418C26.9662 4.82031 26.8203 5.40199 26.5287 5.8892C26.237 6.37311 25.8144 6.74432 25.2609 7.00284C24.7107 7.26136 24.0445 7.39062 23.2623 7.39062H20.5727V5.66051H22.9143C23.3253 5.66051 23.6667 5.60417 23.9385 5.49148C24.2103 5.37879 24.4124 5.20975 24.545 4.98438C24.6809 4.759 24.7488 4.47893 24.7488 4.14418C24.7488 3.80611 24.6809 3.52107 24.545 3.28906C24.4124 3.05705 24.2086 2.88139 23.9335 2.76207C23.6617 2.63944 23.3187 2.57812 22.9044 2.57812H21.4527V11H19.3ZM24.7986 6.36648L27.3291 11H24.9527L22.4768 6.36648H24.7986ZM34.7765 0.818182H36.9292V7.4304C36.9292 8.17282 36.7519 8.82244 36.3973 9.37926C36.046 9.93608 35.5538 10.3703 34.9207 10.6818C34.2877 10.9901 33.5502 11.1442 32.7084 11.1442C31.8632 11.1442 31.1241 10.9901 30.491 10.6818C29.858 10.3703 29.3658 9.93608 29.0145 9.37926C28.6631 8.82244 28.4875 8.17282 28.4875 7.4304V0.818182H30.6402V7.24645C30.6402 7.63423 30.7247 7.97893 30.8937 8.28054C31.0661 8.58215 31.308 8.81913 31.6196 8.99148C31.9311 9.16383 32.2941 9.25 32.7084 9.25C33.126 9.25 33.4889 9.16383 33.7971 8.99148C34.1087 8.81913 34.349 8.58215 34.518 8.28054C34.6904 7.97893 34.7765 7.63423 34.7765 7.24645V0.818182ZM38.7004 0.818182H41.3552L44.1592 7.65909H44.2785L47.0825 0.818182H49.7373V11H47.6492V4.37287H47.5647L44.9298 10.9503H43.5079L40.873 4.34801H40.7884V11H38.7004V0.818182ZM54.7512 11V0.818182H58.7682C59.5371 0.818182 60.1934 0.955729 60.7369 1.23082C61.2838 1.5026 61.6998 1.88873 61.9848 2.3892C62.2732 2.88636 62.4173 3.47135 62.4173 4.14418C62.4173 4.82031 62.2715 5.40199 61.9798 5.8892C61.6882 6.37311 61.2656 6.74432 60.7121 7.00284C60.1619 7.26136 59.4957 7.39062 58.7135 7.39062H56.0239V5.66051H58.3655C58.7765 5.66051 59.1179 5.60417 59.3896 5.49148C59.6614 5.37879 59.8636 5.20975 59.9962 4.98438C60.1321 4.759 60.2 4.47893 60.2 4.14418C60.2 3.80611 60.1321 3.52107 59.9962 3.28906C59.8636 3.05705 59.6598 2.88139 59.3847 2.76207C59.1129 2.63944 58.7699 2.57812 58.3556 2.57812H56.9039V11H54.7512ZM60.2497 6.36648L62.7803 11H60.4039L57.928 6.36648H60.2497ZM63.9387 11V0.818182H67.9557C68.728 0.818182 69.3859 0.965672 69.9294 1.26065C70.473 1.55232 70.8873 1.95833 71.1723 2.47869C71.4607 2.99574 71.6048 3.59233 71.6048 4.26847C71.6048 4.9446 71.459 5.54119 71.1673 6.05824C70.8757 6.57528 70.4531 6.97798 69.8996 7.26634C69.3494 7.55469 68.6832 7.69886 67.901 7.69886H65.3406V5.97372H67.553C67.9673 5.97372 68.3087 5.90246 68.5771 5.75994C68.8489 5.61411 69.0511 5.41359 69.1837 5.15838C69.3196 4.89986 69.3875 4.60322 69.3875 4.26847C69.3875 3.9304 69.3196 3.63542 69.1837 3.38352C69.0511 3.12831 68.8489 2.93111 68.5771 2.7919C68.3054 2.64938 67.9607 2.57812 67.5431 2.57812H66.0914V11H63.9387ZM79.7545 4.10938C79.6849 3.86742 79.5872 3.65365 79.4612 3.46804C79.3353 3.27912 79.1811 3.12003 78.9988 2.99077C78.8199 2.85819 78.6144 2.7571 78.3824 2.6875C78.1537 2.6179 77.9001 2.5831 77.6217 2.5831C77.1014 2.5831 76.644 2.71236 76.2496 2.97088C75.8585 3.2294 75.5535 3.60559 75.3348 4.09943C75.116 4.58996 75.0067 5.18987 75.0067 5.89915C75.0067 6.60843 75.1144 7.21165 75.3298 7.70881C75.5452 8.20597 75.8502 8.58546 76.2446 8.8473C76.639 9.10582 77.1047 9.23509 77.6416 9.23509C78.1288 9.23509 78.5448 9.14891 78.8895 8.97656C79.2375 8.8009 79.5026 8.55398 79.6849 8.2358C79.8705 7.91761 79.9633 7.54143 79.9633 7.10724L80.4008 7.17188H77.7758V5.55114H82.0365V6.83381C82.0365 7.72869 81.8476 8.49763 81.4697 9.14062C81.0919 9.7803 80.5715 10.2741 79.9086 10.6222C79.2458 10.9669 78.4868 11.1392 77.6317 11.1392C76.6771 11.1392 75.8386 10.9287 75.116 10.5078C74.3935 10.0836 73.83 9.48201 73.4257 8.70312C73.0247 7.92093 72.8241 6.9929 72.8241 5.91903C72.8241 5.09375 72.9434 4.35795 73.1821 3.71165C73.424 3.06203 73.7621 2.51184 74.1963 2.06108C74.6305 1.61032 75.1359 1.26728 75.7126 1.03196C76.2893 0.796638 76.9141 0.678977 77.5869 0.678977C78.1636 0.678977 78.7006 0.763494 79.1977 0.932528C79.6949 1.09825 80.1357 1.33357 80.5202 1.63849C80.9079 1.94342 81.2245 2.30634 81.4697 2.72727C81.715 3.14489 81.8724 3.60559 81.942 4.10938H79.7545ZM95.8774 4.38281H93.6998C93.6601 4.10109 93.5789 3.85085 93.4562 3.6321C93.3336 3.41004 93.1762 3.22112 92.9839 3.06534C92.7917 2.90956 92.5696 2.79025 92.3177 2.70739C92.0692 2.62453 91.799 2.5831 91.5074 2.5831C90.9804 2.5831 90.5213 2.71402 90.1302 2.97585C89.7391 3.23437 89.4359 3.61222 89.2204 4.10938C89.005 4.60322 88.8973 5.20312 88.8973 5.90909C88.8973 6.63494 89.005 7.24479 89.2204 7.73864C89.4392 8.23248 89.7441 8.60535 90.1352 8.85724C90.5263 9.10914 90.9787 9.23509 91.4925 9.23509C91.7808 9.23509 92.0476 9.19697 92.2929 9.12074C92.5415 9.04451 92.7619 8.93348 92.9541 8.78764C93.1463 8.63849 93.3054 8.45786 93.4314 8.24574C93.5606 8.03362 93.6501 7.79167 93.6998 7.51989L95.8774 7.52983C95.8211 7.99716 95.6802 8.44792 95.4548 8.8821C95.2327 9.31297 94.9328 9.6991 94.555 10.0405C94.1804 10.3786 93.733 10.647 93.2126 10.8459C92.6956 11.0414 92.1106 11.1392 91.4577 11.1392C90.5495 11.1392 89.7375 10.9337 89.0216 10.5227C88.309 10.1117 87.7455 9.51681 87.3312 8.73793C86.9202 7.95904 86.7148 7.0161 86.7148 5.90909C86.7148 4.79877 86.9236 3.85417 87.3412 3.07528C87.7588 2.2964 88.3256 1.70312 89.0415 1.29545C89.7574 0.884469 90.5628 0.678977 91.4577 0.678977C92.0476 0.678977 92.5945 0.761837 93.0983 0.927557C93.6054 1.09328 94.0545 1.33523 94.4456 1.65341C94.8367 1.96828 95.1549 2.3544 95.4001 2.81179C95.6487 3.26918 95.8078 3.79285 95.8774 4.38281ZM99.5738 0.818182V11H97.4211V0.818182H99.5738ZM100.957 2.59304V0.818182H109.319V2.59304H106.202V11H104.074V2.59304H100.957ZM110.1 0.818182H112.511L114.833 5.20312H114.932L117.254 0.818182H119.665L115.951 7.40057V11H113.814V7.40057L110.1 0.818182ZM124.081 11V0.818182H128.098C128.871 0.818182 129.528 0.965672 130.072 1.26065C130.616 1.55232 131.03 1.95833 131.315 2.47869C131.603 2.99574 131.747 3.59233 131.747 4.26847C131.747 4.9446 131.602 5.54119 131.31 6.05824C131.018 6.57528 130.596 6.97798 130.042 7.26634C129.492 7.55469 128.826 7.69886 128.044 7.69886H125.483V5.97372H127.696C128.11 5.97372 128.451 5.90246 128.72 5.75994C128.992 5.61411 129.194 5.41359 129.326 5.15838C129.462 4.89986 129.53 4.60322 129.53 4.26847C129.53 3.9304 129.462 3.63542 129.326 3.38352C129.194 3.12831 128.992 2.93111 128.72 2.7919C128.448 2.64938 128.103 2.57812 127.686 2.57812H126.234V11H124.081ZM142.502 5.90909C142.502 7.01941 142.292 7.96402 141.871 8.7429C141.453 9.52178 140.883 10.1167 140.161 10.5277C139.441 10.9354 138.633 11.1392 137.734 11.1392C136.83 11.1392 136.018 10.9337 135.298 10.5227C134.579 10.1117 134.011 9.51681 133.593 8.73793C133.176 7.95904 132.967 7.0161 132.967 5.90909C132.967 4.79877 133.176 3.85417 133.593 3.07528C134.011 2.2964 134.579 1.70312 135.298 1.29545C136.018 0.884469 136.83 0.678977 137.734 0.678977C138.633 0.678977 139.441 0.884469 140.161 1.29545C140.883 1.70312 141.453 2.2964 141.871 3.07528C142.292 3.85417 142.502 4.79877 142.502 5.90909ZM140.32 5.90909C140.32 5.18987 140.212 4.58333 139.997 4.08949C139.784 3.59564 139.484 3.22112 139.097 2.96591C138.709 2.7107 138.255 2.5831 137.734 2.5831C137.214 2.5831 136.76 2.7107 136.372 2.96591C135.984 3.22112 135.683 3.59564 135.467 4.08949C135.255 4.58333 135.149 5.18987 135.149 5.90909C135.149 6.62831 135.255 7.23485 135.467 7.72869C135.683 8.22254 135.984 8.59706 136.372 8.85227C136.76 9.10748 137.214 9.23509 137.734 9.23509C138.255 9.23509 138.709 9.10748 139.097 8.85227C139.484 8.59706 139.784 8.22254 139.997 7.72869C140.212 7.23485 140.32 6.62831 140.32 5.90909ZM144.097 11V0.818182H146.25V5.30753H146.384L150.048 0.818182H152.628L148.85 5.37713L152.673 11H150.098L147.309 6.81392L146.25 8.10653V11H144.097ZM153.749 11V0.818182H160.61V2.59304H155.902V5.01918H160.257V6.79403H155.902V9.22514H160.63V11H153.749ZM162.321 0.818182H164.976L167.78 7.65909H167.9L170.704 0.818182H173.358V11H171.27V4.37287H171.186L168.551 10.9503H167.129L164.494 4.34801H164.41V11H162.321V0.818182ZM184.489 5.90909C184.489 7.01941 184.278 7.96402 183.857 8.7429C183.44 9.52178 182.869 10.1167 182.147 10.5277C181.428 10.9354 180.619 11.1392 179.721 11.1392C178.816 11.1392 178.004 10.9337 177.285 10.5227C176.565 10.1117 175.997 9.51681 175.579 8.73793C175.162 7.95904 174.953 7.0161 174.953 5.90909C174.953 4.79877 175.162 3.85417 175.579 3.07528C175.997 2.2964 176.565 1.70312 177.285 1.29545C178.004 0.884469 178.816 0.678977 179.721 0.678977C180.619 0.678977 181.428 0.884469 182.147 1.29545C182.869 1.70312 183.44 2.2964 183.857 3.07528C184.278 3.85417 184.489 4.79877 184.489 5.90909ZM182.306 5.90909C182.306 5.18987 182.198 4.58333 181.983 4.08949C181.771 3.59564 181.471 3.22112 181.083 2.96591C180.695 2.7107 180.241 2.5831 179.721 2.5831C179.2 2.5831 178.746 2.7107 178.359 2.96591C177.971 3.22112 177.669 3.59564 177.454 4.08949C177.242 4.58333 177.136 5.18987 177.136 5.90909C177.136 6.62831 177.242 7.23485 177.454 7.72869C177.669 8.22254 177.971 8.59706 178.359 8.85227C178.746 9.10748 179.2 9.23509 179.721 9.23509C180.241 9.23509 180.695 9.10748 181.083 8.85227C181.471 8.59706 181.771 8.22254 181.983 7.72869C182.198 7.23485 182.306 6.62831 182.306 5.90909ZM194.6 0.818182V11H192.74L188.31 4.59162H188.236V11H186.083V0.818182H187.972L192.367 7.22159H192.457V0.818182H194.6ZM208.602 4.38281H206.424C206.385 4.10109 206.303 3.85085 206.181 3.6321C206.058 3.41004 205.901 3.22112 205.709 3.06534C205.516 2.90956 205.294 2.79025 205.042 2.70739C204.794 2.62453 204.524 2.5831 204.232 2.5831C203.705 2.5831 203.246 2.71402 202.855 2.97585C202.464 3.23437 202.16 3.61222 201.945 4.10938C201.73 4.60322 201.622 5.20312 201.622 5.90909C201.622 6.63494 201.73 7.24479 201.945 7.73864C202.164 8.23248 202.469 8.60535 202.86 8.85724C203.251 9.10914 203.703 9.23509 204.217 9.23509C204.505 9.23509 204.772 9.19697 205.017 9.12074C205.266 9.04451 205.486 8.93348 205.679 8.78764C205.871 8.63849 206.03 8.45786 206.156 8.24574C206.285 8.03362 206.375 7.79167 206.424 7.51989L208.602 7.52983C208.546 7.99716 208.405 8.44792 208.179 8.8821C207.957 9.31297 207.657 9.6991 207.28 10.0405C206.905 10.3786 206.458 10.647 205.937 10.8459C205.42 11.0414 204.835 11.1392 204.182 11.1392C203.274 11.1392 202.462 10.9337 201.746 10.5227C201.034 10.1117 200.47 9.51681 200.056 8.73793C199.645 7.95904 199.439 7.0161 199.439 5.90909C199.439 4.79877 199.648 3.85417 200.066 3.07528C200.483 2.2964 201.05 1.70312 201.766 1.29545C202.482 0.884469 203.287 0.678977 204.182 0.678977C204.772 0.678977 205.319 0.761837 205.823 0.927557C206.33 1.09328 206.779 1.33523 207.17 1.65341C207.561 1.96828 207.879 2.3544 208.125 2.81179C208.373 3.26918 208.532 3.79285 208.602 4.38281ZM209.549 0.818182H211.96L214.282 5.20312H214.381L216.703 0.818182H219.114L215.401 7.40057V11H213.263V7.40057L209.549 0.818182ZM220.29 11V0.818182H224.367C225.116 0.818182 225.741 0.929214 226.241 1.15128C226.742 1.37334 227.118 1.68158 227.37 2.07599C227.622 2.46709 227.748 2.91785 227.748 3.42827C227.748 3.82599 227.668 4.17566 227.509 4.47727C227.35 4.77557 227.131 5.02083 226.853 5.21307C226.578 5.40199 226.263 5.53622 225.908 5.61577V5.7152C226.296 5.73177 226.659 5.84115 226.997 6.04332C227.338 6.2455 227.615 6.52888 227.827 6.89347C228.039 7.25473 228.145 7.68561 228.145 8.18608C228.145 8.72633 228.011 9.20857 227.743 9.63281C227.477 10.0537 227.085 10.3868 226.564 10.6321C226.044 10.8774 225.403 11 224.64 11H220.29ZM222.443 9.24006H224.198C224.798 9.24006 225.235 9.12571 225.51 8.89702C225.785 8.66501 225.923 8.35677 225.923 7.9723C225.923 7.69058 225.855 7.442 225.719 7.22656C225.583 7.01113 225.389 6.84209 225.138 6.71946C224.889 6.59683 224.592 6.53551 224.248 6.53551H222.443V9.24006ZM222.443 5.07884H224.039C224.334 5.07884 224.596 5.02746 224.824 4.92472C225.056 4.81866 225.239 4.66951 225.371 4.47727C225.507 4.28504 225.575 4.05469 225.575 3.78622C225.575 3.41832 225.444 3.12169 225.182 2.89631C224.924 2.67093 224.556 2.55824 224.079 2.55824H222.443V5.07884ZM229.546 11V0.818182H236.407V2.59304H231.699V5.01918H236.054V6.79403H231.699V9.22514H236.427V11H229.546ZM238.118 11V0.818182H242.135C242.904 0.818182 243.561 0.955729 244.104 1.23082C244.651 1.5026 245.067 1.88873 245.352 2.3892C245.64 2.88636 245.785 3.47135 245.785 4.14418C245.785 4.82031 245.639 5.40199 245.347 5.8892C245.055 6.37311 244.633 6.74432 244.079 7.00284C243.529 7.26136 242.863 7.39062 242.081 7.39062H239.391V5.66051H241.733C242.144 5.66051 242.485 5.60417 242.757 5.49148C243.029 5.37879 243.231 5.20975 243.363 4.98438C243.499 4.759 243.567 4.47893 243.567 4.14418C243.567 3.80611 243.499 3.52107 243.363 3.28906C243.231 3.05705 243.027 2.88139 242.752 2.76207C242.48 2.63944 242.137 2.57812 241.723 2.57812H240.271V11H238.118ZM243.617 6.36648L246.147 11H243.771L241.295 6.36648H243.617ZM247.306 11V0.818182H251.323C252.095 0.818182 252.753 0.965672 253.297 1.26065C253.84 1.55232 254.254 1.95833 254.54 2.47869C254.828 2.99574 254.972 3.59233 254.972 4.26847C254.972 4.9446 254.826 5.54119 254.535 6.05824C254.243 6.57528 253.82 6.97798 253.267 7.26634C252.717 7.55469 252.05 7.69886 251.268 7.69886H248.708V5.97372H250.92C251.334 5.97372 251.676 5.90246 251.944 5.75994C252.216 5.61411 252.418 5.41359 252.551 5.15838C252.687 4.89986 252.755 4.60322 252.755 4.26847C252.755 3.9304 252.687 3.63542 252.551 3.38352C252.418 3.12831 252.216 2.93111 251.944 2.7919C251.673 2.64938 251.328 2.57812 250.91 2.57812H249.459V11H247.306ZM262.659 0.818182H264.812V7.4304C264.812 8.17282 264.635 8.82244 264.28 9.37926C263.929 9.93608 263.437 10.3703 262.804 10.6818C262.17 10.9901 261.433 11.1442 260.591 11.1442C259.746 11.1442 259.007 10.9901 258.374 10.6818C257.741 10.3703 257.249 9.93608 256.897 9.37926C256.546 8.82244 256.37 8.17282 256.37 7.4304V0.818182H258.523V7.24645C258.523 7.63423 258.608 7.97893 258.777 8.28054C258.949 8.58215 259.191 8.81913 259.502 8.99148C259.814 9.16383 260.177 9.25 260.591 9.25C261.009 9.25 261.372 9.16383 261.68 8.99148C261.992 8.81913 262.232 8.58215 262.401 8.28054C262.573 7.97893 262.659 7.63423 262.659 7.24645V0.818182ZM275.1 0.818182V11H273.24L268.81 4.59162H268.736V11H266.583V0.818182H268.472L272.867 7.22159H272.957V0.818182H275.1ZM276.878 11V0.818182H279.031V5.30753H279.165L282.829 0.818182H285.409L281.631 5.37713L285.454 11H282.879L280.09 6.81392L279.031 8.10653V11H276.878ZM294.489 5.06889V6.74929H289.845V5.06889H294.489ZM308.09 0.818182V11H306.23L301.801 4.59162H301.726V11H299.573V0.818182H301.463L305.858 7.22159H305.947V0.818182H308.09ZM318.852 4.38281H316.674C316.635 4.10109 316.553 3.85085 316.431 3.6321C316.308 3.41004 316.151 3.22112 315.959 3.06534C315.766 2.90956 315.544 2.79025 315.292 2.70739C315.044 2.62453 314.774 2.5831 314.482 2.5831C313.955 2.5831 313.496 2.71402 313.105 2.97585C312.714 3.23437 312.41 3.61222 312.195 4.10938C311.98 4.60322 311.872 5.20312 311.872 5.90909C311.872 6.63494 311.98 7.24479 312.195 7.73864C312.414 8.23248 312.719 8.60535 313.11 8.85724C313.501 9.10914 313.953 9.23509 314.467 9.23509C314.755 9.23509 315.022 9.19697 315.267 9.12074C315.516 9.04451 315.736 8.93348 315.929 8.78764C316.121 8.63849 316.28 8.45786 316.406 8.24574C316.535 8.03362 316.625 7.79167 316.674 7.51989L318.852 7.52983C318.796 7.99716 318.655 8.44792 318.429 8.8821C318.207 9.31297 317.907 9.6991 317.53 10.0405C317.155 10.3786 316.708 10.647 316.187 10.8459C315.67 11.0414 315.085 11.1392 314.432 11.1392C313.524 11.1392 312.712 10.9337 311.996 10.5227C311.284 10.1117 310.72 9.51681 310.306 8.73793C309.895 7.95904 309.689 7.0161 309.689 5.90909C309.689 4.79877 309.898 3.85417 310.316 3.07528C310.733 2.2964 311.3 1.70312 312.016 1.29545C312.732 0.884469 313.537 0.678977 314.432 0.678977C315.022 0.678977 315.569 0.761837 316.073 0.927557C316.58 1.09328 317.029 1.33523 317.42 1.65341C317.811 1.96828 318.129 2.3544 318.375 2.81179C318.623 3.26918 318.782 3.79285 318.852 4.38281ZM328.006 0.818182V11H325.853V2.86151H325.794L323.462 4.32315V2.41406L325.983 0.818182H328.006ZM334.224 11.1392C333.459 11.1392 332.777 11.0149 332.181 10.7663C331.588 10.5144 331.122 10.1714 330.784 9.73722C330.446 9.30303 330.277 8.81084 330.277 8.26065C330.277 7.83641 330.373 7.44697 330.565 7.09233C330.761 6.73438 331.026 6.43774 331.361 6.20241C331.695 5.96378 332.07 5.81132 332.484 5.74503V5.67543C331.941 5.56605 331.5 5.30256 331.162 4.88494C330.824 4.46401 330.655 3.97514 330.655 3.41832C330.655 2.89134 330.809 2.42235 331.117 2.01136C331.425 1.59706 331.848 1.27225 332.385 1.03693C332.925 0.798295 333.538 0.678977 334.224 0.678977C334.91 0.678977 335.522 0.798295 336.059 1.03693C336.599 1.27557 337.023 1.60204 337.331 2.01633C337.64 2.42732 337.795 2.89465 337.799 3.41832C337.795 3.97846 337.623 4.46733 337.282 4.88494C336.94 5.30256 336.503 5.56605 335.969 5.67543V5.74503C336.377 5.81132 336.746 5.96378 337.078 6.20241C337.413 6.43774 337.678 6.73438 337.873 7.09233C338.072 7.44697 338.173 7.83641 338.177 8.26065C338.173 8.81084 338.003 9.30303 337.665 9.73722C337.326 10.1714 336.859 10.5144 336.263 10.7663C335.669 11.0149 334.99 11.1392 334.224 11.1392ZM334.224 9.55824C334.566 9.55824 334.864 9.49692 335.119 9.37429C335.374 9.24834 335.573 9.07599 335.716 8.85724C335.861 8.63518 335.934 8.37997 335.934 8.09162C335.934 7.79664 335.86 7.53646 335.711 7.31108C335.562 7.08239 335.359 6.90341 335.104 6.77415C334.849 6.64157 334.556 6.57528 334.224 6.57528C333.896 6.57528 333.603 6.64157 333.344 6.77415C333.086 6.90341 332.882 7.08239 332.733 7.31108C332.587 7.53646 332.514 7.79664 332.514 8.09162C332.514 8.37997 332.585 8.63518 332.728 8.85724C332.87 9.07599 333.071 9.24834 333.329 9.37429C333.588 9.49692 333.886 9.55824 334.224 9.55824ZM334.224 5.00923C334.509 5.00923 334.763 4.95123 334.985 4.83523C335.207 4.71922 335.381 4.55848 335.507 4.35298C335.633 4.14749 335.696 3.91051 335.696 3.64205C335.696 3.37689 335.633 3.14489 335.507 2.94602C335.381 2.74384 335.209 2.58641 334.99 2.47372C334.771 2.35772 334.516 2.29972 334.224 2.29972C333.936 2.29972 333.681 2.35772 333.459 2.47372C333.236 2.58641 333.062 2.74384 332.937 2.94602C332.814 3.14489 332.753 3.37689 332.753 3.64205C332.753 3.91051 332.816 4.14749 332.941 4.35298C333.067 4.55848 333.241 4.71922 333.464 4.83523C333.686 4.95123 333.939 5.00923 334.224 5.00923ZM344.737 11H342.43L345.945 0.818182H348.719L352.229 11H349.922L347.372 3.14489H347.292L344.737 11ZM344.592 6.99787H350.041V8.67827H344.592V6.99787ZM354.022 0.818182L356.483 8.55398H356.578L359.044 0.818182H361.43L357.92 11H355.146L351.631 0.818182H354.022ZM363.057 11H360.75L364.265 0.818182H367.039L370.549 11H368.242L365.692 3.14489H365.612L363.057 11ZM362.913 6.99787H368.362V8.67827H362.913V6.99787ZM370.143 2.59304V0.818182H378.505V2.59304H375.388V11H373.26V2.59304H370.143ZM380.393 11H378.086L381.601 0.818182H384.375L387.885 11H385.578L383.028 3.14489H382.948L380.393 11ZM380.249 6.99787H385.698V8.67827H380.249V6.99787ZM389.111 11V0.818182H393.128C393.897 0.818182 394.553 0.955729 395.096 1.23082C395.643 1.5026 396.059 1.88873 396.344 2.3892C396.633 2.88636 396.777 3.47135 396.777 4.14418C396.777 4.82031 396.631 5.40199 396.339 5.8892C396.048 6.37311 395.625 6.74432 395.071 7.00284C394.521 7.26136 393.855 7.39062 393.073 7.39062H390.383V5.66051H392.725C393.136 5.66051 393.477 5.60417 393.749 5.49148C394.021 5.37879 394.223 5.20975 394.356 4.98438C394.491 4.759 394.559 4.47893 394.559 4.14418C394.559 3.80611 394.491 3.52107 394.356 3.28906C394.223 3.05705 394.019 2.88139 393.744 2.76207C393.472 2.63944 393.129 2.57812 392.715 2.57812H391.263V11H389.111ZM394.609 6.36648L397.14 11H394.763L392.287 6.36648H394.609ZM403.821 3.74645C403.782 3.34541 403.611 3.03385 403.309 2.81179C403.008 2.58972 402.598 2.47869 402.081 2.47869C401.73 2.47869 401.433 2.52841 401.191 2.62784C400.95 2.72396 400.764 2.85819 400.635 3.03054C400.509 3.20289 400.446 3.39844 400.446 3.61719C400.439 3.79948 400.477 3.95857 400.56 4.09446C400.646 4.23035 400.764 4.34801 400.913 4.44744C401.062 4.54356 401.235 4.62808 401.43 4.70099C401.626 4.7706 401.834 4.83026 402.057 4.87997L402.971 5.09872C403.415 5.19815 403.823 5.33073 404.194 5.49645C404.566 5.66217 404.887 5.866 405.159 6.10795C405.431 6.34991 405.641 6.63494 405.79 6.96307C405.943 7.29119 406.021 7.66738 406.024 8.09162C406.021 8.71473 405.861 9.25497 405.547 9.71236C405.235 10.1664 404.784 10.5194 404.194 10.7713C403.608 11.0199 402.9 11.1442 402.071 11.1442C401.249 11.1442 400.534 11.0182 399.924 10.7663C399.317 10.5144 398.843 10.1416 398.502 9.64773C398.164 9.15057 397.986 8.53575 397.97 7.80327H400.053C400.076 8.14465 400.174 8.42969 400.346 8.65838C400.522 8.88376 400.756 9.05445 401.047 9.17045C401.342 9.28314 401.675 9.33949 402.047 9.33949C402.411 9.33949 402.728 9.28646 402.996 9.1804C403.268 9.07434 403.478 8.92685 403.628 8.73793C403.777 8.54901 403.851 8.33191 403.851 8.08665C403.851 7.85795 403.783 7.66572 403.647 7.50994C403.515 7.35417 403.319 7.22159 403.061 7.11222C402.806 7.00284 402.492 6.90341 402.121 6.81392L401.013 6.53551C400.154 6.3267 399.476 6.00024 398.979 5.55611C398.482 5.11198 398.235 4.51373 398.238 3.76136C398.235 3.14489 398.399 2.6063 398.731 2.1456C399.065 1.6849 399.524 1.32528 400.108 1.06676C400.691 0.808238 401.354 0.678977 402.096 0.678977C402.852 0.678977 403.512 0.808238 404.075 1.06676C404.642 1.32528 405.083 1.6849 405.397 2.1456C405.712 2.6063 405.875 3.13991 405.885 3.74645H403.821ZM410.712 11V0.818182H417.454V2.59304H412.865V5.01918H417.006V6.79403H412.865V11H410.712ZM421.054 0.818182V11H418.902V0.818182H421.054ZM431.809 4.38281H429.631C429.592 4.10109 429.511 3.85085 429.388 3.6321C429.265 3.41004 429.108 3.22112 428.916 3.06534C428.723 2.90956 428.501 2.79025 428.249 2.70739C428.001 2.62453 427.731 2.5831 427.439 2.5831C426.912 2.5831 426.453 2.71402 426.062 2.97585C425.671 3.23437 425.368 3.61222 425.152 4.10938C424.937 4.60322 424.829 5.20312 424.829 5.90909C424.829 6.63494 424.937 7.24479 425.152 7.73864C425.371 8.23248 425.676 8.60535 426.067 8.85724C426.458 9.10914 426.91 9.23509 427.424 9.23509C427.712 9.23509 427.979 9.19697 428.225 9.12074C428.473 9.04451 428.694 8.93348 428.886 8.78764C429.078 8.63849 429.237 8.45786 429.363 8.24574C429.492 8.03362 429.582 7.79167 429.631 7.51989L431.809 7.52983C431.753 7.99716 431.612 8.44792 431.386 8.8821C431.164 9.31297 430.864 9.6991 430.487 10.0405C430.112 10.3786 429.665 10.647 429.144 10.8459C428.627 11.0414 428.042 11.1392 427.389 11.1392C426.481 11.1392 425.669 10.9337 424.953 10.5227C424.241 10.1117 423.677 9.51681 423.263 8.73793C422.852 7.95904 422.646 7.0161 422.646 5.90909C422.646 4.79877 422.855 3.85417 423.273 3.07528C423.69 2.2964 424.257 1.70312 424.973 1.29545C425.689 0.884469 426.494 0.678977 427.389 0.678977C427.979 0.678977 428.526 0.761837 429.03 0.927557C429.537 1.09328 429.986 1.33523 430.377 1.65341C430.768 1.96828 431.086 2.3544 431.332 2.81179C431.58 3.26918 431.739 3.79285 431.809 4.38281ZM432.965 2.59304V0.818182H441.327V2.59304H438.21V11H436.082V2.59304H432.965ZM444.857 0.818182V11H442.704V0.818182H444.857ZM446.628 11V0.818182H453.37V2.59304H448.781V5.01918H452.922V6.79403H448.781V11H446.628ZM460.341 3.74645C460.301 3.34541 460.131 3.03385 459.829 2.81179C459.527 2.58972 459.118 2.47869 458.601 2.47869C458.25 2.47869 457.953 2.52841 457.711 2.62784C457.469 2.72396 457.283 2.85819 457.154 3.03054C457.028 3.20289 456.965 3.39844 456.965 3.61719C456.959 3.79948 456.997 3.95857 457.08 4.09446C457.166 4.23035 457.283 4.34801 457.433 4.44744C457.582 4.54356 457.754 4.62808 457.95 4.70099C458.145 4.7706 458.354 4.83026 458.576 4.87997L459.491 5.09872C459.935 5.19815 460.343 5.33073 460.714 5.49645C461.085 5.66217 461.407 5.866 461.678 6.10795C461.95 6.34991 462.161 6.63494 462.31 6.96307C462.462 7.29119 462.54 7.66738 462.543 8.09162C462.54 8.71473 462.381 9.25497 462.066 9.71236C461.755 10.1664 461.304 10.5194 460.714 10.7713C460.127 11.0199 459.42 11.1442 458.591 11.1442C457.769 11.1442 457.053 11.0182 456.443 10.7663C455.837 10.5144 455.363 10.1416 455.021 9.64773C454.683 9.15057 454.506 8.53575 454.489 7.80327H456.573C456.596 8.14465 456.694 8.42969 456.866 8.65838C457.042 8.88376 457.275 9.05445 457.567 9.17045C457.862 9.28314 458.195 9.33949 458.566 9.33949C458.931 9.33949 459.247 9.28646 459.516 9.1804C459.787 9.07434 459.998 8.92685 460.147 8.73793C460.296 8.54901 460.371 8.33191 460.371 8.08665C460.371 7.85795 460.303 7.66572 460.167 7.50994C460.034 7.35417 459.839 7.22159 459.58 7.11222C459.325 7.00284 459.012 6.90341 458.641 6.81392L457.532 6.53551C456.674 6.3267 455.996 6.00024 455.499 5.55611C455.002 5.11198 454.755 4.51373 454.758 3.76136C454.755 3.14489 454.919 2.6063 455.25 2.1456C455.585 1.6849 456.044 1.32528 456.627 1.06676C457.211 0.808238 457.873 0.678977 458.616 0.678977C459.372 0.678977 460.031 0.808238 460.595 1.06676C461.161 1.32528 461.602 1.6849 461.917 2.1456C462.232 2.6063 462.394 3.13991 462.404 3.74645H460.341ZM467.172 11V9.44886L470.796 6.09304C471.104 5.79474 471.363 5.52628 471.572 5.28764C471.784 5.04901 471.945 4.81534 472.054 4.58665C472.163 4.35464 472.218 4.1044 472.218 3.83594C472.218 3.53764 472.15 3.28078 472.014 3.06534C471.878 2.84659 471.693 2.67921 471.457 2.56321C471.222 2.44389 470.955 2.38423 470.657 2.38423C470.345 2.38423 470.074 2.44721 469.842 2.57315C469.61 2.6991 469.431 2.87973 469.305 3.11506C469.179 3.35038 469.116 3.63044 469.116 3.95526H467.073C467.073 3.28906 467.223 2.7107 467.525 2.22017C467.827 1.72964 468.249 1.35014 468.793 1.08168C469.336 0.81321 469.963 0.678977 470.672 0.678977C471.401 0.678977 472.036 0.808238 472.576 1.06676C473.12 1.32197 473.542 1.67661 473.844 2.13068C474.145 2.58475 474.296 3.10511 474.296 3.69176C474.296 4.07623 474.22 4.45573 474.068 4.83026C473.918 5.20478 473.652 5.62074 473.267 6.07812C472.883 6.5322 472.341 7.07741 471.641 7.71378L470.155 9.17045V9.24006H474.43V11H467.172ZM479.709 11.1392C479.006 11.1392 478.38 11.0099 477.83 10.7514C477.283 10.4929 476.849 10.1366 476.527 9.68253C476.206 9.22846 476.038 8.7081 476.025 8.12145H478.113C478.136 8.51586 478.302 8.8357 478.61 9.08097C478.919 9.32623 479.285 9.44886 479.709 9.44886C480.047 9.44886 480.345 9.37429 480.604 9.22514C480.866 9.07268 481.07 8.86222 481.215 8.59375C481.365 8.32197 481.439 8.01042 481.439 7.65909C481.439 7.30114 481.363 6.98627 481.21 6.71449C481.061 6.44271 480.854 6.23059 480.589 6.07812C480.324 5.92566 480.021 5.84777 479.679 5.84446C479.381 5.84446 479.091 5.90578 478.809 6.02841C478.531 6.15104 478.314 6.31842 478.158 6.53054L476.244 6.1875L476.726 0.818182H482.951V2.57812H478.501L478.237 5.12855H478.297C478.476 4.87666 478.746 4.66785 479.108 4.50213C479.469 4.33641 479.873 4.25355 480.321 4.25355C480.934 4.25355 481.481 4.39773 481.961 4.68608C482.442 4.97443 482.821 5.3705 483.1 5.87429C483.378 6.37476 483.516 6.95147 483.512 7.6044C483.516 8.29048 483.357 8.90033 483.035 9.43395C482.717 9.96425 482.271 10.3819 481.698 10.6868C481.128 10.9884 480.465 11.1392 479.709 11.1392ZM489.006 11.2237C488.151 11.2204 487.415 11.0099 486.799 10.5923C486.185 10.1747 485.713 9.56984 485.382 8.7777C485.054 7.98556 484.891 7.03267 484.894 5.91903C484.894 4.80871 485.059 3.86245 485.387 3.08026C485.718 2.29806 486.19 1.70312 486.804 1.29545C487.42 0.884469 488.154 0.678977 489.006 0.678977C489.858 0.678977 490.59 0.884469 491.203 1.29545C491.82 1.70644 492.294 2.30303 492.625 3.08523C492.957 3.86411 493.121 4.80871 493.117 5.91903C493.117 7.03598 492.952 7.99053 492.62 8.78267C492.292 9.57481 491.822 10.1797 491.208 10.5973C490.595 11.0149 489.861 11.2237 489.006 11.2237ZM489.006 9.43892C489.589 9.43892 490.055 9.1456 490.403 8.55895C490.751 7.9723 490.923 7.09233 490.92 5.91903C490.92 5.14678 490.84 4.50379 490.681 3.99006C490.526 3.47633 490.304 3.0902 490.015 2.83168C489.73 2.57315 489.394 2.44389 489.006 2.44389C488.426 2.44389 487.962 2.7339 487.614 3.31392C487.266 3.89394 487.09 4.76231 487.087 5.91903C487.087 6.70123 487.165 7.35417 487.321 7.87784C487.48 8.3982 487.703 8.7893 487.992 9.05114C488.28 9.30966 488.618 9.43892 489.006 9.43892ZM496.731 0.818182L498.784 4.28835H498.863L500.927 0.818182H503.358L500.25 5.90909L503.427 11H500.951L498.863 7.52486H498.784L496.696 11H494.23L497.417 5.90909L494.29 0.818182H496.731ZM508.424 11.1392C507.681 11.1392 507.02 11.0116 506.44 10.7564C505.863 10.4979 505.408 10.1432 505.073 9.69247C504.741 9.2384 504.571 8.71473 504.561 8.12145H506.728C506.742 8.37003 506.823 8.58878 506.972 8.7777C507.124 8.9633 507.327 9.10748 507.579 9.21023C507.83 9.31297 508.114 9.36435 508.429 9.36435C508.757 9.36435 509.047 9.30634 509.299 9.19034C509.551 9.07434 509.748 8.91359 509.89 8.7081C510.033 8.5026 510.104 8.26562 510.104 7.99716C510.104 7.72538 510.028 7.48509 509.875 7.27628C509.726 7.06416 509.511 6.89844 509.229 6.77912C508.951 6.6598 508.619 6.60014 508.235 6.60014H507.285V5.01918H508.235C508.56 5.01918 508.846 4.96283 509.095 4.85014C509.347 4.73745 509.542 4.58168 509.682 4.38281C509.821 4.18063 509.89 3.94531 509.89 3.67685C509.89 3.42164 509.829 3.19792 509.706 3.00568C509.587 2.81013 509.418 2.65767 509.199 2.5483C508.984 2.43892 508.732 2.38423 508.444 2.38423C508.152 2.38423 507.885 2.43726 507.643 2.54332C507.401 2.64607 507.207 2.79356 507.062 2.9858C506.916 3.17803 506.838 3.40341 506.828 3.66193H504.765C504.775 3.07528 504.942 2.55824 505.267 2.1108C505.592 1.66335 506.029 1.31368 506.579 1.06179C507.133 0.806581 507.758 0.678977 508.454 0.678977C509.156 0.678977 509.771 0.806581 510.298 1.06179C510.825 1.317 511.234 1.66169 511.526 2.09588C511.821 2.52675 511.967 3.01065 511.964 3.54758C511.967 4.11766 511.79 4.59328 511.432 4.97443C511.077 5.35559 510.615 5.59754 510.044 5.70028V5.77983C510.794 5.87595 511.364 6.13613 511.755 6.56037C512.149 6.9813 512.345 7.50829 512.341 8.14134C512.345 8.72135 512.177 9.23674 511.839 9.6875C511.504 10.1383 511.042 10.4929 510.452 10.7514C509.862 11.0099 509.186 11.1392 508.424 11.1392ZM517.608 11.1392C516.905 11.1392 516.278 11.0099 515.728 10.7514C515.181 10.4929 514.747 10.1366 514.426 9.68253C514.104 9.22846 513.937 8.7081 513.924 8.12145H516.012C516.035 8.51586 516.201 8.8357 516.509 9.08097C516.817 9.32623 517.183 9.44886 517.608 9.44886C517.946 9.44886 518.244 9.37429 518.502 9.22514C518.764 9.07268 518.968 8.86222 519.114 8.59375C519.263 8.32197 519.338 8.01042 519.338 7.65909C519.338 7.30114 519.261 6.98627 519.109 6.71449C518.96 6.44271 518.753 6.23059 518.487 6.07812C518.222 5.92566 517.919 5.84777 517.578 5.84446C517.279 5.84446 516.989 5.90578 516.708 6.02841C516.429 6.15104 516.212 6.31842 516.056 6.53054L514.142 6.1875L514.625 0.818182H520.849V2.57812H516.399L516.136 5.12855H516.196C516.375 4.87666 516.645 4.66785 517.006 4.50213C517.367 4.33641 517.772 4.25355 518.219 4.25355C518.832 4.25355 519.379 4.39773 519.86 4.68608C520.34 4.97443 520.72 5.3705 520.998 5.87429C521.277 6.37476 521.414 6.95147 521.411 7.6044C521.414 8.29048 521.255 8.90033 520.934 9.43395C520.615 9.96425 520.17 10.3819 519.596 10.6868C519.026 10.9884 518.363 11.1392 517.608 11.1392ZM526.904 11.2237C526.049 11.2204 525.313 11.0099 524.697 10.5923C524.084 10.1747 523.612 9.56984 523.28 8.7777C522.952 7.98556 522.79 7.03267 522.793 5.91903C522.793 4.80871 522.957 3.86245 523.285 3.08026C523.617 2.29806 524.089 1.70312 524.702 1.29545C525.318 0.884469 526.053 0.678977 526.904 0.678977C527.756 0.678977 528.489 0.884469 529.102 1.29545C529.718 1.70644 530.192 2.30303 530.524 3.08523C530.855 3.86411 531.019 4.80871 531.016 5.91903C531.016 7.03598 530.85 7.99053 530.519 8.78267C530.191 9.57481 529.72 10.1797 529.107 10.5973C528.494 11.0149 527.759 11.2237 526.904 11.2237ZM526.904 9.43892C527.488 9.43892 527.953 9.1456 528.301 8.55895C528.649 7.9723 528.822 7.09233 528.818 5.91903C528.818 5.14678 528.739 4.50379 528.58 3.99006C528.424 3.47633 528.202 3.0902 527.914 2.83168C527.629 2.57315 527.292 2.44389 526.904 2.44389C526.324 2.44389 525.86 2.7339 525.512 3.31392C525.164 3.89394 524.989 4.76231 524.985 5.91903C524.985 6.70123 525.063 7.35417 525.219 7.87784C525.378 8.3982 525.602 8.7893 525.89 9.05114C526.179 9.30966 526.517 9.43892 526.904 9.43892Z" fill="#27282B"/>
</svg>
