<svg width="1155" height="310" viewBox="0 0 1155 310" fill="none" xmlns="http://www.w3.org/2000/svg">
<path d="M160.863 79.02L164.763 70.05C175.813 70.44 185.043 72.195 192.453 75.315C199.863 78.435 205.388 82.79 209.028 88.38C212.798 93.84 214.683 100.405 214.683 108.075C214.683 116.005 212.863 123.155 209.223 129.525C205.713 135.895 200.318 140.9 193.038 144.54C185.758 148.18 176.658 150 165.738 150H50.8825L61.9975 74.925L50.8825 3.74999H161.643C175.163 3.74999 185.758 6.93499 193.428 13.305C201.098 19.545 204.933 28.255 204.933 39.435C204.933 45.805 203.503 51.785 200.643 57.375C197.783 62.965 193.103 67.71 186.603 71.61C180.233 75.38 171.653 77.85 160.863 79.02ZM100.023 139.08L80.9125 116.655H149.748C154.038 116.655 157.418 115.55 159.888 113.34C162.358 111 163.593 107.88 163.593 103.98C163.593 100.47 162.358 97.48 159.888 95.01C157.548 92.54 154.038 91.305 149.358 91.305H91.6375V58.545H141.948C145.328 58.545 148.123 57.505 150.333 55.425C152.673 53.345 153.843 50.68 153.843 47.43C153.843 44.44 152.803 41.97 150.723 40.02C148.643 38.07 145.718 37.095 141.948 37.095H81.1075L100.023 14.67L109.968 74.925L100.023 139.08ZM362.147 59.52V94.23H251.972V59.52H362.147ZM286.487 76.875L277.517 131.28L258.407 110.22H369.362V150H227.792L238.517 76.875L227.792 3.74999H368.387V43.53H258.407L277.517 22.47L286.487 76.875ZM440.966 150V77.85H491.276V150H440.966ZM372.716 3.74999H427.901L476.456 66.345H455.591L503.951 3.74999H559.136L482.306 102.42L449.741 103.005L372.716 3.74999ZM635.264 153.51C617.454 153.51 601.854 150.325 588.464 143.955C575.204 137.585 564.869 128.68 557.459 117.24C550.049 105.67 546.344 92.215 546.344 76.875C546.344 61.535 550.049 48.145 557.459 36.705C564.869 25.135 575.204 16.165 588.464 9.79499C601.854 3.425 617.454 0.239999 635.264 0.239999C653.074 0.239999 668.609 3.425 681.869 9.79499C695.259 16.165 705.659 25.135 713.069 36.705C720.479 48.145 724.184 61.535 724.184 76.875C724.184 92.215 720.479 105.67 713.069 117.24C705.659 128.68 695.259 137.585 681.869 143.955C668.609 150.325 653.074 153.51 635.264 153.51ZM635.264 108.66C643.194 108.66 650.019 107.425 655.739 104.955C661.459 102.355 665.814 98.715 668.804 94.035C671.924 89.225 673.484 83.505 673.484 76.875C673.484 70.245 671.924 64.59 668.804 59.91C665.814 55.1 661.459 51.46 655.739 48.99C650.019 46.39 643.194 45.09 635.264 45.09C627.334 45.09 620.509 46.39 614.789 48.99C609.069 51.46 604.649 55.1 601.529 59.91C598.539 64.59 597.044 70.245 597.044 76.875C597.044 83.505 598.539 89.225 601.529 94.035C604.649 98.715 609.069 102.355 614.789 104.955C620.509 107.425 627.334 108.66 635.264 108.66ZM877.568 113.34L863.918 116.655V3.74999H912.668V150H849.683L777.143 37.29L790.793 33.975V150H742.043V3.74999H806.978L877.568 113.34ZM1013.7 3.74999C1031.51 3.74999 1047.05 6.80499 1060.31 12.915C1073.7 18.895 1084.1 27.345 1091.51 38.265C1098.92 49.185 1102.62 62.055 1102.62 76.875C1102.62 91.565 1098.92 104.435 1091.51 115.485C1084.1 126.405 1073.7 134.92 1060.31 141.03C1047.05 147.01 1031.51 150 1013.7 150H936.091V3.74999H1013.7ZM986.011 127.575L963.391 105.15H1017.6C1024.75 105.15 1030.86 104.045 1035.93 101.835C1041.13 99.495 1045.1 96.245 1047.83 92.085C1050.56 87.795 1051.92 82.725 1051.92 76.875C1051.92 70.895 1050.56 65.825 1047.83 61.665C1045.1 57.505 1041.13 54.32 1035.93 52.11C1030.86 49.77 1024.75 48.6 1017.6 48.6H963.391L986.011 26.175V127.575Z" fill="#448DBB"/>
<path d="M53.5531 185.395H103.863V310H53.5531V185.395ZM0.903106 163.75H156.513V208.6H0.903106V163.75ZM172.278 163.75H222.588V310H172.278V163.75ZM284.988 163.75H335.298V310H284.988V163.75ZM200.748 213.085H304.683V257.545H200.748V213.085ZM489.163 219.52V254.23H378.988V219.52H489.163ZM413.503 236.875L404.533 291.28L385.423 270.22H496.378V310H354.808L365.533 236.875L354.808 163.75H495.403V203.53H385.423L404.533 182.47L413.503 236.875Z" fill="#101112"/>
<path d="M747.601 287.77L732.976 287.965L763.786 163.75H817.021L775.876 310H711.136L673.306 191.245H692.806L654.976 310H590.236L549.091 163.75H602.521L633.331 287.77L618.706 287.575L656.731 163.75H709.381L747.601 287.77ZM852.925 285.43V245.455H952.57V285.43H852.925ZM937.165 163.75L1001.32 310H947.695L897.19 185.98H910.06L859.555 310H805.93L870.085 163.75H937.165ZM1036.82 310V237.85H1087.13V310H1036.82ZM968.571 163.75H1023.76L1072.31 226.345H1051.45L1099.81 163.75H1154.99L1078.16 262.42L1045.6 263.005L968.571 163.75Z" fill="#BB2D11"/>
</svg>
